<?xml version="1.0" encoding="UTF-8" standalone="no"?>
<!-- Created with Inkscape (http://www.inkscape.org/) -->

<svg
   xmlns:dc="http://purl.org/dc/elements/1.1/"
   xmlns:cc="http://creativecommons.org/ns#"
   xmlns:rdf="http://www.w3.org/1999/02/22-rdf-syntax-ns#"
   xmlns:svg="http://www.w3.org/2000/svg"
   xmlns="http://www.w3.org/2000/svg"
   xmlns:sodipodi="http://sodipodi.sourceforge.net/DTD/sodipodi-0.dtd"
   xmlns:inkscape="http://www.inkscape.org/namespaces/inkscape"
   width="94"
   height="180"
   viewBox="0 0 24.870832 47.625"
   version="1.1"
   id="svg8"
   inkscape:version="0.92.3 (2405546, 2018-03-11)"
   sodipodi:docname="bishop-black.svg">
  <defs
     id="defs2" />
  <sodipodi:namedview
     id="base"
     pagecolor="#ffffff"
     bordercolor="#666666"
     borderopacity="1.0"
     inkscape:pageopacity="0.0"
     inkscape:pageshadow="2"
     inkscape:zoom="2"
     inkscape:cx="17.852231"
     inkscape:cy="97.869215"
     inkscape:document-units="px"
     inkscape:current-layer="layer1"
     showgrid="true"
     units="px"
     showguides="false"
     inkscape:window-width="1303"
     inkscape:window-height="745"
     inkscape:window-x="55"
     inkscape:window-y="-8"
     inkscape:window-maximized="1">
    <inkscape:grid
       type="xygrid"
       id="grid815" />
  </sodipodi:namedview>
  <metadata
     id="metadata5">
    <rdf:RDF>
      <cc:Work
         rdf:about="">
        <dc:format>image/svg+xml</dc:format>
        <dc:type
           rdf:resource="http://purl.org/dc/dcmitype/StillImage" />
        <dc:title></dc:title>
      </cc:Work>
    </rdf:RDF>
  </metadata>
  <g
     inkscape:label="Layer 1"
     inkscape:groupmode="layer"
     id="layer1"
     transform="translate(0,-249.375)">
    <g
       id="g845">
      <path
         inkscape:connector-curvature="0"
         id="path4524"
         d="m 3.6953125,285.75586 -1.7109375,1.70898 v 3.19532 l 1.0488281,1.04882 -1.0488281,1.04883 v 2.25781 h 21.166016 v -2.25781 l -1.048829,-1.04883 1.048829,-1.04882 v -3.19532 l -1.708985,-1.70898 z m 0.546875,1.32226 H 20.892578 l 0.935547,0.93555 v 2.09766 l -0.935547,0.93555 H 10.583984 a 0.66152446,0.66152446 0 1 0 0,1.32226 h 10.308594 l 0.935547,0.93555 v 0.38867 H 3.3066406 v -0.38867 l 1.5976563,-1.59571 -1.5976563,-1.59765 v -2.09766 z"
         style="color:#000000;font-style:normal;font-variant:normal;font-weight:normal;font-stretch:normal;font-size:medium;line-height:normal;font-family:sans-serif;font-variant-ligatures:normal;font-variant-position:normal;font-variant-caps:normal;font-variant-numeric:normal;font-variant-alternates:normal;font-feature-settings:normal;text-indent:0;text-align:start;text-decoration:none;text-decoration-line:none;text-decoration-style:solid;text-decoration-color:#000000;letter-spacing:normal;word-spacing:normal;text-transform:none;writing-mode:lr-tb;direction:ltr;text-orientation:mixed;dominant-baseline:auto;baseline-shift:baseline;text-anchor:start;white-space:normal;shape-padding:0;clip-rule:nonzero;display:inline;overflow:visible;visibility:visible;opacity:1;isolation:auto;mix-blend-mode:normal;color-interpolation:sRGB;color-interpolation-filters:linearRGB;solid-color:#000000;solid-opacity:1;vector-effect:none;fill:#000000;fill-opacity:1;fill-rule:nonzero;stroke:none;stroke-width:1.32291663;stroke-linecap:round;stroke-linejoin:miter;stroke-miterlimit:4;stroke-dasharray:none;stroke-dashoffset:0;stroke-opacity:1;color-rendering:auto;image-rendering:auto;shape-rendering:auto;text-rendering:auto;enable-background:accumulate" />
      <path
         inkscape:connector-curvature="0"
         id="rect814"
         d="m 9.2597656,269.88086 c -0.3194624,2e-4 -0.5931385,0.22868 -0.6503906,0.54297 l -2.6464844,14.55078 c -0.074931,0.40717 0.2383336,0.78234 0.6523438,0.78125 H 18.521484 c 0.413216,-1.3e-4 0.725177,-0.37486 0.650391,-0.78125 l -2.646484,-14.55078 c -0.05725,-0.31429 -0.330928,-0.54277 -0.650391,-0.54297 z"
         style="color:#000000;font-style:normal;font-variant:normal;font-weight:normal;font-stretch:normal;font-size:medium;line-height:normal;font-family:sans-serif;font-variant-ligatures:normal;font-variant-position:normal;font-variant-caps:normal;font-variant-numeric:normal;font-variant-alternates:normal;font-feature-settings:normal;text-indent:0;text-align:start;text-decoration:none;text-decoration-line:none;text-decoration-style:solid;text-decoration-color:#000000;letter-spacing:normal;word-spacing:normal;text-transform:none;writing-mode:lr-tb;direction:ltr;text-orientation:mixed;dominant-baseline:auto;baseline-shift:baseline;text-anchor:start;white-space:normal;shape-padding:0;clip-rule:nonzero;display:inline;overflow:visible;visibility:visible;opacity:1;isolation:auto;mix-blend-mode:normal;color-interpolation:sRGB;color-interpolation-filters:linearRGB;solid-color:#000000;solid-opacity:1;vector-effect:none;fill:#000000;fill-opacity:1;fill-rule:nonzero;stroke:none;stroke-width:1.32291663;stroke-linecap:butt;stroke-linejoin:round;stroke-miterlimit:4;stroke-dasharray:none;stroke-dashoffset:0;stroke-opacity:1;color-rendering:auto;image-rendering:auto;shape-rendering:auto;text-rendering:auto;enable-background:accumulate"
         sodipodi:nodetypes="ccccccccc" />
      <path
         inkscape:connector-curvature="0"
         id="rect817"
         d="m 9.2597656,265.91211 c 0,0 -0.4685348,-0.01 -0.9570312,0.23437 -0.4884965,0.24425 -1.0273438,0.86806 -1.0273438,1.75 0,0.88195 0.5388459,1.50381 1.0273438,1.74805 0.4884979,0.24425 0.9570312,0.23633 0.9570312,0.23633 H 15.875 c 0,0 0.468534,0.008 0.957031,-0.23633 0.488498,-0.24424 1.027344,-0.8661 1.027344,-1.74805 0,-0.88194 -0.538848,-1.50575 -1.027344,-1.75 C 16.343535,265.90224 15.875,265.91211 15.875,265.91211 Z"
         style="color:#000000;font-style:normal;font-variant:normal;font-weight:normal;font-stretch:normal;font-size:medium;line-height:normal;font-family:sans-serif;font-variant-ligatures:normal;font-variant-position:normal;font-variant-caps:normal;font-variant-numeric:normal;font-variant-alternates:normal;font-feature-settings:normal;text-indent:0;text-align:start;text-decoration:none;text-decoration-line:none;text-decoration-style:solid;text-decoration-color:#000000;letter-spacing:normal;word-spacing:normal;text-transform:none;writing-mode:lr-tb;direction:ltr;text-orientation:mixed;dominant-baseline:auto;baseline-shift:baseline;text-anchor:start;white-space:normal;shape-padding:0;clip-rule:nonzero;display:inline;overflow:visible;visibility:visible;opacity:1;isolation:auto;mix-blend-mode:normal;color-interpolation:sRGB;color-interpolation-filters:linearRGB;solid-color:#000000;solid-opacity:1;vector-effect:none;fill:#000000;fill-opacity:1;fill-rule:nonzero;stroke:none;stroke-width:1.32291663;stroke-linecap:butt;stroke-linejoin:round;stroke-miterlimit:4;stroke-dasharray:none;stroke-dashoffset:0;stroke-opacity:1;color-rendering:auto;image-rendering:auto;shape-rendering:auto;text-rendering:auto;enable-background:accumulate"
         sodipodi:nodetypes="ccsccccsccc" />
      <path
         inkscape:connector-curvature="0"
         id="rect820"
         d="m 10.298828,260.61914 c -0.3235962,0.0103 -0.5922009,0.25327 -0.6347655,0.57422 l -0.5292969,3.96875 c -0.053498,0.3964 0.2543062,0.74922 0.6542969,0.75 h 5.5566405 c 0.400776,4.1e-4 0.709852,-0.35282 0.65625,-0.75 l -0.529297,-3.96875 c -0.05576,-0.41384 -0.476288,-0.67314 -0.871094,-0.53711 0,0 -0.376634,0.12794 -0.849609,0.25586 -0.472975,0.12792 -1.066097,0.24074 -1.304687,0.23633 -0.261661,-0.005 -0.771447,-0.11751 -1.175782,-0.24024 -0.404335,-0.12272 -0.71289,-0.24414 -0.71289,-0.24414 -0.0827,-0.0322 -0.171042,-0.0475 -0.259766,-0.0449 z"
         style="color:#000000;font-style:normal;font-variant:normal;font-weight:normal;font-stretch:normal;font-size:medium;line-height:normal;font-family:sans-serif;font-variant-ligatures:normal;font-variant-position:normal;font-variant-caps:normal;font-variant-numeric:normal;font-variant-alternates:normal;font-feature-settings:normal;text-indent:0;text-align:start;text-decoration:none;text-decoration-line:none;text-decoration-style:solid;text-decoration-color:#000000;letter-spacing:normal;word-spacing:normal;text-transform:none;writing-mode:lr-tb;direction:ltr;text-orientation:mixed;dominant-baseline:auto;baseline-shift:baseline;text-anchor:start;white-space:normal;shape-padding:0;clip-rule:nonzero;display:inline;overflow:visible;visibility:visible;opacity:1;isolation:auto;mix-blend-mode:normal;color-interpolation:sRGB;color-interpolation-filters:linearRGB;solid-color:#000000;solid-opacity:1;vector-effect:none;fill:#000000;fill-opacity:1;fill-rule:nonzero;stroke:none;stroke-width:1.32291663;stroke-linecap:butt;stroke-linejoin:round;stroke-miterlimit:4;stroke-dasharray:none;stroke-dashoffset:0;stroke-opacity:1;color-rendering:auto;image-rendering:auto;shape-rendering:auto;text-rendering:auto;enable-background:accumulate"
         sodipodi:nodetypes="ccccccccsccccc" />
      <path
         inkscape:connector-curvature="0"
         id="path827"
         d="m 12.501953,249.56445 c -0.734207,0 -1.32403,0.44099 -1.78125,0.98047 -0.45722,0.53948 -0.8245193,1.22154 -1.1328124,1.95117 -0.6165862,1.45928 -0.9882808,3.07012 -0.9882812,4.1543 9e-7,2.18405 1.7847066,3.96875 3.9687496,3.96875 2.184044,0 4.162111,-1.73765 4.16211,-3.96875 0,-0.25903 -0.121719,-0.56605 -0.31836,-0.74609 -0.19664,-0.18005 -0.404894,-0.24396 -0.585937,-0.28321 -0.362087,-0.0785 -0.691345,-0.0637 -1.011719,-0.0742 -0.320374,-0.0105 -0.617569,-0.0419 -0.810547,-0.10938 -0.192977,-0.0675 -0.270079,-0.12149 -0.345703,-0.29102 -0.161839,-0.36278 -0.160919,-1.6736 -0.107422,-2.81054 0.02675,-0.56848 0.052,-1.10308 -0.0059,-1.57422 -0.02893,-0.23557 -0.06947,-0.4602 -0.208984,-0.70117 -0.13951,-0.24098 -0.489681,-0.4961 -0.833985,-0.4961 z"
         style="color:#000000;font-style:normal;font-variant:normal;font-weight:normal;font-stretch:normal;font-size:medium;line-height:normal;font-family:sans-serif;font-variant-ligatures:normal;font-variant-position:normal;font-variant-caps:normal;font-variant-numeric:normal;font-variant-alternates:normal;font-feature-settings:normal;text-indent:0;text-align:start;text-decoration:none;text-decoration-line:none;text-decoration-style:solid;text-decoration-color:#000000;letter-spacing:normal;word-spacing:normal;text-transform:none;writing-mode:lr-tb;direction:ltr;text-orientation:mixed;dominant-baseline:auto;baseline-shift:baseline;text-anchor:start;white-space:normal;shape-padding:0;clip-rule:nonzero;display:inline;overflow:visible;visibility:visible;opacity:1;isolation:auto;mix-blend-mode:normal;color-interpolation:sRGB;color-interpolation-filters:linearRGB;solid-color:#000000;solid-opacity:1;vector-effect:none;fill:#000000;fill-opacity:1;fill-rule:nonzero;stroke:none;stroke-width:1.32291663;stroke-linecap:butt;stroke-linejoin:round;stroke-miterlimit:4;stroke-dasharray:none;stroke-dashoffset:0;stroke-opacity:1;color-rendering:auto;image-rendering:auto;shape-rendering:auto;text-rendering:auto;enable-background:accumulate"
         sodipodi:nodetypes="cscssscssccccccc" />
    </g>
  </g>
</svg>
