<?xml version="1.0" encoding="UTF-8" standalone="no"?>
<!-- Created with Inkscape (http://www.inkscape.org/) -->

<svg
   xmlns:dc="http://purl.org/dc/elements/1.1/"
   xmlns:cc="http://creativecommons.org/ns#"
   xmlns:rdf="http://www.w3.org/1999/02/22-rdf-syntax-ns#"
   xmlns:svg="http://www.w3.org/2000/svg"
   xmlns="http://www.w3.org/2000/svg"
   xmlns:sodipodi="http://sodipodi.sourceforge.net/DTD/sodipodi-0.dtd"
   xmlns:inkscape="http://www.inkscape.org/namespaces/inkscape"
   width="94"
   height="180"
   viewBox="0 0 24.870832 47.625"
   version="1.1"
   id="svg8"
   inkscape:version="0.92.3 (2405546, 2018-03-11)"
   sodipodi:docname="bishop.svg">
  <defs
     id="defs2" />
  <sodipodi:namedview
     id="base"
     pagecolor="#ffffff"
     bordercolor="#666666"
     borderopacity="1.0"
     inkscape:pageopacity="0.0"
     inkscape:pageshadow="2"
     inkscape:zoom="3.2"
     inkscape:cx="47"
     inkscape:cy="92.296798"
     inkscape:document-units="px"
     inkscape:current-layer="layer1"
     showgrid="true"
     units="px"
     showguides="false"
     inkscape:window-width="1303"
     inkscape:window-height="745"
     inkscape:window-x="55"
     inkscape:window-y="-8"
     inkscape:window-maximized="1">
    <inkscape:grid
       type="xygrid"
       id="grid815" />
  </sodipodi:namedview>
  <metadata
     id="metadata5">
    <rdf:RDF>
      <cc:Work
         rdf:about="">
        <dc:format>image/svg+xml</dc:format>
        <dc:type
           rdf:resource="http://purl.org/dc/dcmitype/StillImage" />
        <dc:title></dc:title>
      </cc:Work>
    </rdf:RDF>
  </metadata>
  <g
     inkscape:label="Layer 1"
     inkscape:groupmode="layer"
     id="layer1"
     transform="translate(0,-249.375)">
    <g
       id="g845">
      <path
         inkscape:connector-curvature="0"
         id="path4524"
         d="m 3.6953125,285.75586 -1.7109375,1.70898 v 3.19532 l 1.0488281,1.04882 -1.0488281,1.04883 v 2.25781 h 21.166016 v -2.25781 l -1.048829,-1.04883 1.048829,-1.04882 v -3.19532 l -1.708985,-1.70898 z m 0.546875,1.32226 H 20.892578 l 0.935547,0.93555 v 2.09766 l -0.935547,0.93555 H 10.583984 a 0.66152446,0.66152446 0 1 0 0,1.32226 h 10.308594 l 0.935547,0.93555 v 0.38867 H 3.3066406 v -0.38867 l 1.5976563,-1.59571 -1.5976563,-1.59765 v -2.09766 z"
         style="color:#000000;font-style:normal;font-variant:normal;font-weight:normal;font-stretch:normal;font-size:medium;line-height:normal;font-family:sans-serif;font-variant-ligatures:normal;font-variant-position:normal;font-variant-caps:normal;font-variant-numeric:normal;font-variant-alternates:normal;font-feature-settings:normal;text-indent:0;text-align:start;text-decoration:none;text-decoration-line:none;text-decoration-style:solid;text-decoration-color:#000000;letter-spacing:normal;word-spacing:normal;text-transform:none;writing-mode:lr-tb;direction:ltr;text-orientation:mixed;dominant-baseline:auto;baseline-shift:baseline;text-anchor:start;white-space:normal;shape-padding:0;clip-rule:nonzero;display:inline;overflow:visible;visibility:visible;opacity:1;isolation:auto;mix-blend-mode:normal;color-interpolation:sRGB;color-interpolation-filters:linearRGB;solid-color:#000000;solid-opacity:1;vector-effect:none;fill:#000000;fill-opacity:1;fill-rule:nonzero;stroke:none;stroke-width:1.32291663;stroke-linecap:round;stroke-linejoin:miter;stroke-miterlimit:4;stroke-dasharray:none;stroke-dashoffset:0;stroke-opacity:1;color-rendering:auto;image-rendering:auto;shape-rendering:auto;text-rendering:auto;enable-background:accumulate" />
      <path
         inkscape:connector-curvature="0"
         id="rect814"
         d="m 9.2597656,269.88086 a 0.66152446,0.66152446 0 0 0 -0.6503906,0.54297 l -2.6464844,14.55078 a 0.66152446,0.66152446 0 0 0 0.6523438,0.78125 H 18.521484 a 0.66152446,0.66152446 0 0 0 0.650391,-0.78125 L 16.525391,270.42383 A 0.66152446,0.66152446 0 0 0 15.875,269.88086 Z M 9.8125,271.20312 h 5.509766 l 2.404296,13.22852 H 7.4082031 Z"
         style="color:#000000;font-style:normal;font-variant:normal;font-weight:normal;font-stretch:normal;font-size:medium;line-height:normal;font-family:sans-serif;font-variant-ligatures:normal;font-variant-position:normal;font-variant-caps:normal;font-variant-numeric:normal;font-variant-alternates:normal;font-feature-settings:normal;text-indent:0;text-align:start;text-decoration:none;text-decoration-line:none;text-decoration-style:solid;text-decoration-color:#000000;letter-spacing:normal;word-spacing:normal;text-transform:none;writing-mode:lr-tb;direction:ltr;text-orientation:mixed;dominant-baseline:auto;baseline-shift:baseline;text-anchor:start;white-space:normal;shape-padding:0;clip-rule:nonzero;display:inline;overflow:visible;visibility:visible;opacity:1;isolation:auto;mix-blend-mode:normal;color-interpolation:sRGB;color-interpolation-filters:linearRGB;solid-color:#000000;solid-opacity:1;vector-effect:none;fill:#000000;fill-opacity:1;fill-rule:nonzero;stroke:none;stroke-width:1.32291663;stroke-linecap:butt;stroke-linejoin:round;stroke-miterlimit:4;stroke-dasharray:none;stroke-dashoffset:0;stroke-opacity:1;color-rendering:auto;image-rendering:auto;shape-rendering:auto;text-rendering:auto;enable-background:accumulate" />
      <path
         inkscape:connector-curvature="0"
         id="rect817"
         d="m 9.2597656,265.91211 c 0,0 -0.4685348,-0.01 -0.9570312,0.23437 -0.4884965,0.24425 -1.0273438,0.86806 -1.0273438,1.75 0,0.88195 0.5388459,1.50381 1.0273438,1.74805 0.4884979,0.24425 0.9570312,0.23633 0.9570312,0.23633 H 15.875 c 0,0 0.468534,0.008 0.957031,-0.23633 0.488498,-0.24424 1.027344,-0.8661 1.027344,-1.74805 0,-0.88194 -0.538848,-1.50575 -1.027344,-1.75 C 16.343535,265.90224 15.875,265.91211 15.875,265.91211 Z m 0,1.32227 H 15.875 c 0,0 0.192273,0.009 0.365234,0.0957 0.172962,0.0865 0.296875,0.12543 0.296875,0.5664 0,0.44098 -0.123914,0.47798 -0.296875,0.56446 -0.17296,0.0865 -0.365234,0.0957 -0.365234,0.0957 H 9.2597656 c 0,0 -0.1922736,-0.009 -0.3652344,-0.0957 -0.1729607,-0.0865 -0.2949218,-0.12348 -0.2949218,-0.56446 0,-0.44097 0.1219597,-0.47992 0.2949218,-0.5664 0.1729622,-0.0865 0.3652344,-0.0957 0.3652344,-0.0957 z"
         style="color:#000000;font-style:normal;font-variant:normal;font-weight:normal;font-stretch:normal;font-size:medium;line-height:normal;font-family:sans-serif;font-variant-ligatures:normal;font-variant-position:normal;font-variant-caps:normal;font-variant-numeric:normal;font-variant-alternates:normal;font-feature-settings:normal;text-indent:0;text-align:start;text-decoration:none;text-decoration-line:none;text-decoration-style:solid;text-decoration-color:#000000;letter-spacing:normal;word-spacing:normal;text-transform:none;writing-mode:lr-tb;direction:ltr;text-orientation:mixed;dominant-baseline:auto;baseline-shift:baseline;text-anchor:start;white-space:normal;shape-padding:0;clip-rule:nonzero;display:inline;overflow:visible;visibility:visible;opacity:1;isolation:auto;mix-blend-mode:normal;color-interpolation:sRGB;color-interpolation-filters:linearRGB;solid-color:#000000;solid-opacity:1;vector-effect:none;fill:#000000;fill-opacity:1;fill-rule:nonzero;stroke:none;stroke-width:1.32291663;stroke-linecap:butt;stroke-linejoin:round;stroke-miterlimit:4;stroke-dasharray:none;stroke-dashoffset:0;stroke-opacity:1;color-rendering:auto;image-rendering:auto;shape-rendering:auto;text-rendering:auto;enable-background:accumulate" />
      <path
         inkscape:connector-curvature="0"
         id="rect820"
         d="m 10.298828,260.61914 a 0.66152446,0.66152446 0 0 0 -0.6347655,0.57422 l -0.5292969,3.96875 a 0.66152446,0.66152446 0 0 0 0.6542969,0.75 h 5.5566405 a 0.66152446,0.66152446 0 0 0 0.65625,-0.75 l -0.529297,-3.96875 a 0.66152446,0.66152446 0 0 0 -0.871094,-0.53711 c 0,0 -0.376634,0.12794 -0.849609,0.25586 -0.472975,0.12792 -1.066097,0.24074 -1.304687,0.23633 -0.261661,-0.005 -0.771447,-0.11751 -1.175782,-0.24024 -0.404335,-0.12272 -0.71289,-0.24414 -0.71289,-0.24414 a 0.66152446,0.66152446 0 0 0 -0.259766,-0.0449 z m 3.964844,1.51953 0.326172,2.44922 h -4.044922 l 0.322266,-2.41992 c 0.01074,0.003 0.0087,0.003 0.01953,0.006 0.455255,0.13818 1.003797,0.28895 1.537109,0.29883 0.556383,0.0103 1.154922,-0.14287 1.673828,-0.28321 0.09234,-0.025 0.08199,-0.0265 0.166016,-0.0508 z"
         style="color:#000000;font-style:normal;font-variant:normal;font-weight:normal;font-stretch:normal;font-size:medium;line-height:normal;font-family:sans-serif;font-variant-ligatures:normal;font-variant-position:normal;font-variant-caps:normal;font-variant-numeric:normal;font-variant-alternates:normal;font-feature-settings:normal;text-indent:0;text-align:start;text-decoration:none;text-decoration-line:none;text-decoration-style:solid;text-decoration-color:#000000;letter-spacing:normal;word-spacing:normal;text-transform:none;writing-mode:lr-tb;direction:ltr;text-orientation:mixed;dominant-baseline:auto;baseline-shift:baseline;text-anchor:start;white-space:normal;shape-padding:0;clip-rule:nonzero;display:inline;overflow:visible;visibility:visible;opacity:1;isolation:auto;mix-blend-mode:normal;color-interpolation:sRGB;color-interpolation-filters:linearRGB;solid-color:#000000;solid-opacity:1;vector-effect:none;fill:#000000;fill-opacity:1;fill-rule:nonzero;stroke:none;stroke-width:1.32291663;stroke-linecap:butt;stroke-linejoin:round;stroke-miterlimit:4;stroke-dasharray:none;stroke-dashoffset:0;stroke-opacity:1;color-rendering:auto;image-rendering:auto;shape-rendering:auto;text-rendering:auto;enable-background:accumulate" />
      <path
         inkscape:connector-curvature="0"
         id="path827"
         d="m 12.501953,249.56445 c -0.734207,0 -1.32403,0.44099 -1.78125,0.98047 -0.45722,0.53948 -0.8245193,1.22154 -1.1328124,1.95117 -0.6165862,1.45928 -0.9882808,3.07012 -0.9882812,4.1543 9e-7,2.18405 1.7847066,3.96875 3.9687496,3.96875 2.184044,0 4.162111,-1.73765 4.16211,-3.96875 0,-0.25903 -0.121719,-0.56605 -0.31836,-0.74609 -0.19664,-0.18005 -0.404894,-0.24396 -0.585937,-0.28321 -0.362087,-0.0785 -0.691345,-0.0637 -1.011719,-0.0742 -0.320374,-0.0105 -0.617569,-0.0419 -0.810547,-0.10938 -0.192977,-0.0675 -0.270079,-0.12149 -0.345703,-0.29102 -0.161839,-0.36278 -0.160919,-1.6736 -0.107422,-2.81054 0.02675,-0.56848 0.052,-1.10308 -0.0059,-1.57422 -0.02893,-0.23557 -0.06947,-0.4602 -0.208984,-0.70117 -0.13951,-0.24098 -0.489681,-0.4961 -0.833985,-0.4961 z m -0.271484,1.50391 c 0.02306,0.29632 0.02341,0.70767 0,1.20508 -0.05242,1.11413 -0.232198,2.39686 0.220703,3.41211 0.231748,0.5195 0.685273,0.85154 1.115234,1.00195 0.429961,0.15041 0.848554,0.16997 1.205078,0.18164 0.239461,0.008 0.369372,0.0188 0.519532,0.0293 -0.165897,1.29789 -1.351832,2.39843 -2.722657,2.39844 -1.469088,0 -2.6464834,-1.1774 -2.646484,-2.64649 3e-7,-0.74239 0.336828,-2.34187 0.884766,-3.63867 0.273968,-0.6484 0.601871,-1.23145 0.923828,-1.61133 0.208491,-0.246 0.345208,-0.26204 0.5,-0.33203 z"
         style="color:#000000;font-style:normal;font-variant:normal;font-weight:normal;font-stretch:normal;font-size:medium;line-height:normal;font-family:sans-serif;font-variant-ligatures:normal;font-variant-position:normal;font-variant-caps:normal;font-variant-numeric:normal;font-variant-alternates:normal;font-feature-settings:normal;text-indent:0;text-align:start;text-decoration:none;text-decoration-line:none;text-decoration-style:solid;text-decoration-color:#000000;letter-spacing:normal;word-spacing:normal;text-transform:none;writing-mode:lr-tb;direction:ltr;text-orientation:mixed;dominant-baseline:auto;baseline-shift:baseline;text-anchor:start;white-space:normal;shape-padding:0;clip-rule:nonzero;display:inline;overflow:visible;visibility:visible;opacity:1;isolation:auto;mix-blend-mode:normal;color-interpolation:sRGB;color-interpolation-filters:linearRGB;solid-color:#000000;solid-opacity:1;vector-effect:none;fill:#000000;fill-opacity:1;fill-rule:nonzero;stroke:none;stroke-width:1.32291663;stroke-linecap:butt;stroke-linejoin:round;stroke-miterlimit:4;stroke-dasharray:none;stroke-dashoffset:0;stroke-opacity:1;color-rendering:auto;image-rendering:auto;shape-rendering:auto;text-rendering:auto;enable-background:accumulate" />
    </g>
  </g>
</svg>
