<?xml version="1.0" encoding="UTF-8" standalone="no"?>
<!-- Created with Inkscape (http://www.inkscape.org/) -->

<svg
   xmlns:dc="http://purl.org/dc/elements/1.1/"
   xmlns:cc="http://creativecommons.org/ns#"
   xmlns:rdf="http://www.w3.org/1999/02/22-rdf-syntax-ns#"
   xmlns:svg="http://www.w3.org/2000/svg"
   xmlns="http://www.w3.org/2000/svg"
   xmlns:sodipodi="http://sodipodi.sourceforge.net/DTD/sodipodi-0.dtd"
   xmlns:inkscape="http://www.inkscape.org/namespaces/inkscape"
   width="94"
   height="170"
   viewBox="0 0 24.870832 44.979167"
   version="1.1"
   id="svg8"
   inkscape:version="0.92.3 (2405546, 2018-03-11)"
   sodipodi:docname="horse-black.svg">
  <defs
     id="defs2" />
  <sodipodi:namedview
     id="base"
     pagecolor="#ffffff"
     bordercolor="#666666"
     borderopacity="1.0"
     inkscape:pageopacity="0.0"
     inkscape:pageshadow="2"
     inkscape:zoom="3.3882353"
     inkscape:cx="34.056262"
     inkscape:cy="76.164145"
     inkscape:document-units="px"
     inkscape:current-layer="layer1"
     showgrid="true"
     units="px"
     showguides="false"
     inkscape:window-width="1303"
     inkscape:window-height="745"
     inkscape:window-x="55"
     inkscape:window-y="-8"
     inkscape:window-maximized="1">
    <inkscape:grid
       type="xygrid"
       id="grid815" />
  </sodipodi:namedview>
  <metadata
     id="metadata5">
    <rdf:RDF>
      <cc:Work
         rdf:about="">
        <dc:format>image/svg+xml</dc:format>
        <dc:type
           rdf:resource="http://purl.org/dc/dcmitype/StillImage" />
        <dc:title></dc:title>
      </cc:Work>
    </rdf:RDF>
  </metadata>
  <g
     inkscape:label="Layer 1"
     inkscape:groupmode="layer"
     id="layer1"
     transform="translate(0,-252.02083)">
    <g
       id="g822">
      <path
         inkscape:connector-curvature="0"
         id="path4524"
         d="m 3.6953125,285.75586 -1.7109375,1.70898 v 3.19532 l 1.0488281,1.04882 -1.0488281,1.04883 v 2.25781 h 21.166016 v -2.25781 l -1.048829,-1.04883 1.048829,-1.04882 v -3.19532 l -1.708985,-1.70898 z m 0.546875,1.32226 H 20.892578 l 0.935547,0.93555 v 2.09766 l -0.935547,0.93555 H 10.583984 a 0.66152446,0.66152446 0 1 0 0,1.32226 h 10.308594 l 0.935547,0.93555 v 0.38867 H 3.3066406 v -0.38867 l 1.5976563,-1.59571 -1.5976563,-1.59765 v -2.09766 z"
         style="color:#000000;font-style:normal;font-variant:normal;font-weight:normal;font-stretch:normal;font-size:medium;line-height:normal;font-family:sans-serif;font-variant-ligatures:normal;font-variant-position:normal;font-variant-caps:normal;font-variant-numeric:normal;font-variant-alternates:normal;font-feature-settings:normal;text-indent:0;text-align:start;text-decoration:none;text-decoration-line:none;text-decoration-style:solid;text-decoration-color:#000000;letter-spacing:normal;word-spacing:normal;text-transform:none;writing-mode:lr-tb;direction:ltr;text-orientation:mixed;dominant-baseline:auto;baseline-shift:baseline;text-anchor:start;white-space:normal;shape-padding:0;clip-rule:nonzero;display:inline;overflow:visible;visibility:visible;opacity:1;isolation:auto;mix-blend-mode:normal;color-interpolation:sRGB;color-interpolation-filters:linearRGB;solid-color:#000000;solid-opacity:1;vector-effect:none;fill:#000000;fill-opacity:1;fill-rule:nonzero;stroke:none;stroke-width:1.32291663;stroke-linecap:round;stroke-linejoin:miter;stroke-miterlimit:4;stroke-dasharray:none;stroke-dashoffset:0;stroke-opacity:1;color-rendering:auto;image-rendering:auto;shape-rendering:auto;text-rendering:auto;enable-background:accumulate" />
      <path
         inkscape:connector-curvature="0"
         id="path814"
         d="m 9.2910156,256.63867 c -5.609e-4,-2e-5 -0.1459837,0.01 -0.1464844,0.01 -10e-4,1.9e-4 -0.3097898,0.14779 -0.3105468,0.14844 -3.785e-4,3.2e-4 -0.1071052,0.11674 -0.1074219,0.11718 -3.167e-4,4.4e-4 -0.050306,0.0781 -0.066406,0.11328 -0.064402,0.14088 -0.060547,0.2259 -0.060547,0.28516 v 1.58789 1.58789 c 0,0 -0.00172,0.0691 -0.021484,0.16797 -0.019768,0.0988 -0.074389,0.18181 -0.050781,0.1582 l -0.4824219,0.48243 -7.48632815,4.99023 0.93554685,3.42969 0.027344,0.0566 c 0,0 0.087509,0.17707 0.2070312,0.38086 0.1195221,0.20378 0.200842,0.42201 0.53125,0.66015 0.6277727,0.45248 1.21875,0.0508 1.21875,0.0508 l -0.109375,0.0449 3.6679688,-1.13086 c 0.1430051,-0.0136 0.5014146,-0.0255 1.3359375,0.0937 0.7319298,0.10456 1.2810218,-0.0866 1.7304692,-0.35157 0.07449,0.50283 0.148437,0.60036 0.148437,1.35157 0,1.56545 -0.3309523,3.36415 -1.4589843,4.49218 -2.801741,2.80174 -2.8398439,5.75913 -2.8398438,7.08204 v 3.30859 H 6.6152344 18.894531 l 0.19336,-0.32227 c 0,0 4.09845,-6.79211 2.730468,-15 -0.693395,-4.16037 -3.021268,-6.65712 -5.1875,-8.05468 -1.083116,-0.69879 -2.126131,-1.1322 -2.921875,-1.39453 -0.397872,-0.13117 -0.732972,-0.21903 -0.984375,-0.2754 -0.125701,-0.0282 -0.231211,-0.0485 -0.314453,-0.0625 -0.08324,-0.014 -0.0859,-0.0273 -0.240234,-0.0273 0.0882,0 0.04668,0.007 0.0039,-0.0215 -0.04277,-0.0285 -0.06445,-0.0488 -0.06445,-0.0488 l -0.205078,-0.20508 c -0.04357,-0.0762 -0.506188,-0.88837 -1.015625,-1.74805 -0.266409,-0.44956 -0.533163,-0.89129 -0.740234,-1.21484 -0.103536,-0.16178 -0.1890685,-0.28831 -0.2714849,-0.39648 -0.041208,-0.0541 -0.057205,-0.0931 -0.1757812,-0.18946 -0.029644,-0.0241 -0.065801,-0.054 -0.140625,-0.0898 -0.037412,-0.0179 -0.085071,-0.0384 -0.1523438,-0.0527 -0.033636,-0.007 -0.1166266,-0.0136 -0.1171875,-0.0137 z"
         style="color:#000000;font-style:normal;font-variant:normal;font-weight:normal;font-stretch:normal;font-size:medium;line-height:normal;font-family:sans-serif;font-variant-ligatures:normal;font-variant-position:normal;font-variant-caps:normal;font-variant-numeric:normal;font-variant-alternates:normal;font-feature-settings:normal;text-indent:0;text-align:start;text-decoration:none;text-decoration-line:none;text-decoration-style:solid;text-decoration-color:#000000;letter-spacing:normal;word-spacing:normal;text-transform:none;writing-mode:lr-tb;direction:ltr;text-orientation:mixed;dominant-baseline:auto;baseline-shift:baseline;text-anchor:start;white-space:normal;shape-padding:0;clip-rule:nonzero;display:inline;overflow:visible;visibility:visible;opacity:1;isolation:auto;mix-blend-mode:normal;color-interpolation:sRGB;color-interpolation-filters:linearRGB;solid-color:#000000;solid-opacity:1;vector-effect:none;fill:#000000;fill-opacity:1;fill-rule:nonzero;stroke:none;stroke-width:1.32291663;stroke-linecap:butt;stroke-linejoin:miter;stroke-miterlimit:4;stroke-dasharray:none;stroke-dashoffset:0;stroke-opacity:1;color-rendering:auto;image-rendering:auto;shape-rendering:auto;text-rendering:auto;enable-background:accumulate"
         sodipodi:nodetypes="cccscscccccccccccccccsssccccsccccccccccccsccc" />
    </g>
  </g>
</svg>
