<?xml version="1.0" encoding="UTF-8" standalone="no"?>
<!-- Created with Inkscape (http://www.inkscape.org/) -->

<svg
   xmlns:dc="http://purl.org/dc/elements/1.1/"
   xmlns:cc="http://creativecommons.org/ns#"
   xmlns:rdf="http://www.w3.org/1999/02/22-rdf-syntax-ns#"
   xmlns:svg="http://www.w3.org/2000/svg"
   xmlns="http://www.w3.org/2000/svg"
   xmlns:sodipodi="http://sodipodi.sourceforge.net/DTD/sodipodi-0.dtd"
   xmlns:inkscape="http://www.inkscape.org/namespaces/inkscape"
   width="94"
   height="170"
   viewBox="0 0 24.870832 44.979167"
   version="1.1"
   id="svg8"
   inkscape:version="0.92.3 (2405546, 2018-03-11)"
   sodipodi:docname="pawn.svg">
  <defs
     id="defs2" />
  <sodipodi:namedview
     id="base"
     pagecolor="#ffffff"
     bordercolor="#666666"
     borderopacity="1.0"
     inkscape:pageopacity="0.0"
     inkscape:pageshadow="2"
     inkscape:zoom="2.88"
     inkscape:cx="62.034369"
     inkscape:cy="86.150959"
     inkscape:document-units="px"
     inkscape:current-layer="layer1"
     showgrid="true"
     units="px"
     showguides="false"
     inkscape:window-width="1303"
     inkscape:window-height="745"
     inkscape:window-x="55"
     inkscape:window-y="-8"
     inkscape:window-maximized="1">
    <inkscape:grid
       type="xygrid"
       id="grid815" />
  </sodipodi:namedview>
  <metadata
     id="metadata5">
    <rdf:RDF>
      <cc:Work
         rdf:about="">
        <dc:format>image/svg+xml</dc:format>
        <dc:type
           rdf:resource="http://purl.org/dc/dcmitype/StillImage" />
        <dc:title></dc:title>
      </cc:Work>
    </rdf:RDF>
  </metadata>
  <g
     inkscape:label="Layer 1"
     inkscape:groupmode="layer"
     id="layer1"
     transform="translate(0,-252.02083)">
    <g
       id="g4552"
       transform="translate(-13.229167,3.9687526)">
      <path
         inkscape:connector-curvature="0"
         id="path4524"
         d="m 23.8125,287.73957 h 10.583334 l 1.322916,-1.32292 v -2.64583 L 34.395834,282.4479 H 17.197917 L 15.875,283.77082 v 2.64583 l 1.322917,1.32292 -1.322917,1.32292 v 1.32291 h 19.84375 v -1.32291 l -1.322916,-1.32292"
         style="fill:none;stroke:#000000;stroke-width:0.79374999;stroke-linecap:round;stroke-linejoin:miter;stroke-miterlimit:4;stroke-dasharray:none;stroke-opacity:1" />
      <path
         sodipodi:nodetypes="cczcczc"
         inkscape:connector-curvature="0"
         id="path4526"
         d="m 18.520833,281.12499 h 14.552083 c 0,0 1.322917,-1.32292 -1.322916,-5.29167 -2.645833,-3.96875 -2.645834,-10.58333 -2.645834,-10.58333 h -6.614583 c 0,0 0,6.61458 -2.645833,10.58333 -2.645833,3.96875 -1.322917,5.29167 -1.322917,5.29167 z"
         style="fill:none;stroke:#000000;stroke-width:0.79374999;stroke-linecap:butt;stroke-linejoin:miter;stroke-miterlimit:4;stroke-dasharray:none;stroke-opacity:1" />
      <path
         sodipodi:nodetypes="ccsccsc"
         inkscape:connector-curvature="0"
         id="rect4532"
         d="m 22.489584,261.28125 h 6.614583 c 0,0 1.322916,-10e-6 1.322916,1.3229 0,1.32292 -1.322916,1.32293 -1.322916,1.32293 h -6.614583 c 0,0 -1.322917,-10e-6 -1.322917,-1.32293 0,-1.32291 1.322917,-1.3229 1.322917,-1.3229 z"
         style="fill:none;fill-opacity:1;stroke:#000000;stroke-width:0.79374999;stroke-linecap:round;stroke-linejoin:round;stroke-miterlimit:4;stroke-dasharray:none;stroke-opacity:1" />
      <path
         sodipodi:nodetypes="sccssss"
         style="fill:none;fill-opacity:1;stroke:#000000;stroke-width:0.79374999;stroke-linecap:round;stroke-linejoin:round;stroke-miterlimit:4;stroke-dasharray:none;stroke-opacity:1"
         d="m 30.427083,255.98957 c 1e-6,1.2786 -0.518253,2.43615 -1.356156,3.27405 -0.979638,0.87293 -1.967195,0.56934 -3.14176,0.56241 -1.174565,-0.007 -2.536139,0.28282 -3.406344,-0.56241 -0.837903,-0.8379 -1.356156,-1.99545 -1.356156,-3.27405 1e-6,-2.55719 2.073014,-4.63021 4.630208,-4.63021 2.557194,0 4.630207,2.07302 4.630208,4.63021 z"
         id="path4537"
         inkscape:connector-curvature="0" />
    </g>
  </g>
</svg>
