<?xml version="1.0" encoding="UTF-8" standalone="no"?>
<!-- Created with Inkscape (http://www.inkscape.org/) -->

<svg
   xmlns:dc="http://purl.org/dc/elements/1.1/"
   xmlns:cc="http://creativecommons.org/ns#"
   xmlns:rdf="http://www.w3.org/1999/02/22-rdf-syntax-ns#"
   xmlns:svg="http://www.w3.org/2000/svg"
   xmlns="http://www.w3.org/2000/svg"
   xmlns:sodipodi="http://sodipodi.sourceforge.net/DTD/sodipodi-0.dtd"
   xmlns:inkscape="http://www.inkscape.org/namespaces/inkscape"
   width="94"
   height="180"
   viewBox="0 0 24.870832 47.625"
   version="1.1"
   id="svg8"
   inkscape:version="0.92.3 (2405546, 2018-03-11)"
   sodipodi:docname="queen.svg">
  <defs
     id="defs2" />
  <sodipodi:namedview
     id="base"
     pagecolor="#ffffff"
     bordercolor="#666666"
     borderopacity="1.0"
     inkscape:pageopacity="0.0"
     inkscape:pageshadow="2"
     inkscape:zoom="3.2"
     inkscape:cx="42.96648"
     inkscape:cy="139.86815"
     inkscape:document-units="px"
     inkscape:current-layer="layer1"
     showgrid="true"
     units="px"
     showguides="false"
     inkscape:window-width="1303"
     inkscape:window-height="745"
     inkscape:window-x="55"
     inkscape:window-y="-8"
     inkscape:window-maximized="1">
    <inkscape:grid
       type="xygrid"
       id="grid815" />
  </sodipodi:namedview>
  <metadata
     id="metadata5">
    <rdf:RDF>
      <cc:Work
         rdf:about="">
        <dc:format>image/svg+xml</dc:format>
        <dc:type
           rdf:resource="http://purl.org/dc/dcmitype/StillImage" />
        <dc:title></dc:title>
      </cc:Work>
    </rdf:RDF>
  </metadata>
  <g
     inkscape:label="Layer 1"
     inkscape:groupmode="layer"
     id="layer1"
     transform="translate(0,-249.375)">
    <g
       id="g841">
      <path
         inkscape:connector-curvature="0"
         id="path4524"
         d="m 3.6953125,285.75586 -1.7109375,1.70898 v 3.19532 l 1.0488281,1.04882 -1.0488281,1.04883 v 2.25781 h 21.166016 v -2.25781 l -1.048829,-1.04883 1.048829,-1.04882 v -3.19532 l -1.708985,-1.70898 z m 0.546875,1.32226 H 20.892578 l 0.935547,0.93555 v 2.09766 l -0.935547,0.93555 H 10.583984 a 0.66152446,0.66152446 0 1 0 0,1.32226 h 10.308594 l 0.935547,0.93555 v 0.38867 H 3.3066406 v -0.38867 l 1.5976563,-1.59571 -1.5976563,-1.59765 v -2.09766 z"
         style="color:#000000;font-style:normal;font-variant:normal;font-weight:normal;font-stretch:normal;font-size:medium;line-height:normal;font-family:sans-serif;font-variant-ligatures:normal;font-variant-position:normal;font-variant-caps:normal;font-variant-numeric:normal;font-variant-alternates:normal;font-feature-settings:normal;text-indent:0;text-align:start;text-decoration:none;text-decoration-line:none;text-decoration-style:solid;text-decoration-color:#000000;letter-spacing:normal;word-spacing:normal;text-transform:none;writing-mode:lr-tb;direction:ltr;text-orientation:mixed;dominant-baseline:auto;baseline-shift:baseline;text-anchor:start;white-space:normal;shape-padding:0;clip-rule:nonzero;display:inline;overflow:visible;visibility:visible;opacity:1;isolation:auto;mix-blend-mode:normal;color-interpolation:sRGB;color-interpolation-filters:linearRGB;solid-color:#000000;solid-opacity:1;vector-effect:none;fill:#000000;fill-opacity:1;fill-rule:nonzero;stroke:none;stroke-width:1.32291663;stroke-linecap:round;stroke-linejoin:miter;stroke-miterlimit:4;stroke-dasharray:none;stroke-dashoffset:0;stroke-opacity:1;color-rendering:auto;image-rendering:auto;shape-rendering:auto;text-rendering:auto;enable-background:accumulate" />
      <path
         inkscape:connector-curvature="0"
         id="rect814"
         d="m 9.2597656,269.88086 a 0.66152446,0.66152446 0 0 0 -0.6503906,0.54297 l -2.6464844,14.55078 a 0.66152446,0.66152446 0 0 0 0.6523438,0.78125 H 18.521484 a 0.66152446,0.66152446 0 0 0 0.650391,-0.78125 L 16.525391,270.42383 A 0.66152446,0.66152446 0 0 0 15.875,269.88086 Z M 9.8125,271.20312 h 5.509766 l 2.404296,13.22852 H 7.4082031 Z"
         style="color:#000000;font-style:normal;font-variant:normal;font-weight:normal;font-stretch:normal;font-size:medium;line-height:normal;font-family:sans-serif;font-variant-ligatures:normal;font-variant-position:normal;font-variant-caps:normal;font-variant-numeric:normal;font-variant-alternates:normal;font-feature-settings:normal;text-indent:0;text-align:start;text-decoration:none;text-decoration-line:none;text-decoration-style:solid;text-decoration-color:#000000;letter-spacing:normal;word-spacing:normal;text-transform:none;writing-mode:lr-tb;direction:ltr;text-orientation:mixed;dominant-baseline:auto;baseline-shift:baseline;text-anchor:start;white-space:normal;shape-padding:0;clip-rule:nonzero;display:inline;overflow:visible;visibility:visible;opacity:1;isolation:auto;mix-blend-mode:normal;color-interpolation:sRGB;color-interpolation-filters:linearRGB;solid-color:#000000;solid-opacity:1;vector-effect:none;fill:#000000;fill-opacity:1;fill-rule:nonzero;stroke:none;stroke-width:1.32291663;stroke-linecap:butt;stroke-linejoin:round;stroke-miterlimit:4;stroke-dasharray:none;stroke-dashoffset:0;stroke-opacity:1;color-rendering:auto;image-rendering:auto;shape-rendering:auto;text-rendering:auto;enable-background:accumulate" />
      <path
         inkscape:connector-curvature="0"
         id="rect817"
         d="m 9.2597656,265.91211 c 0,0 -0.4685348,-0.01 -0.9570312,0.23437 -0.4884965,0.24425 -1.0273438,0.86806 -1.0273438,1.75 0,0.88195 0.5388459,1.50381 1.0273438,1.74805 0.4884979,0.24425 0.9570312,0.23633 0.9570312,0.23633 H 15.875 c 0,0 0.468534,0.008 0.957031,-0.23633 0.488498,-0.24424 1.027344,-0.8661 1.027344,-1.74805 0,-0.88194 -0.538848,-1.50575 -1.027344,-1.75 C 16.343535,265.90224 15.875,265.91211 15.875,265.91211 Z m 0,1.32227 H 15.875 c 0,0 0.192273,0.009 0.365234,0.0957 0.172962,0.0865 0.296875,0.12543 0.296875,0.5664 0,0.44098 -0.123914,0.47798 -0.296875,0.56446 -0.17296,0.0865 -0.365234,0.0957 -0.365234,0.0957 H 9.2597656 c 0,0 -0.1922736,-0.009 -0.3652344,-0.0957 -0.1729607,-0.0865 -0.2949218,-0.12348 -0.2949218,-0.56446 0,-0.44097 0.1219597,-0.47992 0.2949218,-0.5664 0.1729622,-0.0865 0.3652344,-0.0957 0.3652344,-0.0957 z"
         style="color:#000000;font-style:normal;font-variant:normal;font-weight:normal;font-stretch:normal;font-size:medium;line-height:normal;font-family:sans-serif;font-variant-ligatures:normal;font-variant-position:normal;font-variant-caps:normal;font-variant-numeric:normal;font-variant-alternates:normal;font-feature-settings:normal;text-indent:0;text-align:start;text-decoration:none;text-decoration-line:none;text-decoration-style:solid;text-decoration-color:#000000;letter-spacing:normal;word-spacing:normal;text-transform:none;writing-mode:lr-tb;direction:ltr;text-orientation:mixed;dominant-baseline:auto;baseline-shift:baseline;text-anchor:start;white-space:normal;shape-padding:0;clip-rule:nonzero;display:inline;overflow:visible;visibility:visible;opacity:1;isolation:auto;mix-blend-mode:normal;color-interpolation:sRGB;color-interpolation-filters:linearRGB;solid-color:#000000;solid-opacity:1;vector-effect:none;fill:#000000;fill-opacity:1;fill-rule:nonzero;stroke:none;stroke-width:1.32291663;stroke-linecap:butt;stroke-linejoin:round;stroke-miterlimit:4;stroke-dasharray:none;stroke-dashoffset:0;stroke-opacity:1;color-rendering:auto;image-rendering:auto;shape-rendering:auto;text-rendering:auto;enable-background:accumulate" />
      <path
         inkscape:connector-curvature="0"
         id="rect827"
         d="m 9.2597656,260.61914 a 0.66152446,0.66152446 0 0 0 -0.6601562,0.66211 V 265.25 a 0.66152446,0.66152446 0 0 0 0.6601562,0.66211 H 15.875 A 0.66152446,0.66152446 0 0 0 16.537109,265.25 v -3.96875 A 0.66152446,0.66152446 0 0 0 15.875,260.61914 Z m 0.6621094,1.32422 h 5.291016 v 2.64453 H 9.921875 Z"
         style="color:#000000;font-style:normal;font-variant:normal;font-weight:normal;font-stretch:normal;font-size:medium;line-height:normal;font-family:sans-serif;font-variant-ligatures:normal;font-variant-position:normal;font-variant-caps:normal;font-variant-numeric:normal;font-variant-alternates:normal;font-feature-settings:normal;text-indent:0;text-align:start;text-decoration:none;text-decoration-line:none;text-decoration-style:solid;text-decoration-color:#000000;letter-spacing:normal;word-spacing:normal;text-transform:none;writing-mode:lr-tb;direction:ltr;text-orientation:mixed;dominant-baseline:auto;baseline-shift:baseline;text-anchor:start;white-space:normal;shape-padding:0;clip-rule:nonzero;display:inline;overflow:visible;visibility:visible;opacity:1;isolation:auto;mix-blend-mode:normal;color-interpolation:sRGB;color-interpolation-filters:linearRGB;solid-color:#000000;solid-opacity:1;vector-effect:none;fill:#000000;fill-opacity:1;fill-rule:nonzero;stroke:none;stroke-width:1.32291663;stroke-linecap:butt;stroke-linejoin:round;stroke-miterlimit:4;stroke-dasharray:none;stroke-dashoffset:0;stroke-opacity:1;color-rendering:auto;image-rendering:auto;shape-rendering:auto;text-rendering:auto;enable-background:accumulate" />
      <path
         inkscape:connector-curvature="0"
         id="rect829"
         d="m 7.9140625,255.32812 a 0.66152446,0.66152446 0 0 0 -0.6035156,0.8711 l 1.3222656,3.96875 a 0.66152446,0.66152446 0 0 0 0.6269531,0.45117 H 15.875 a 0.66152446,0.66152446 0 0 0 0.626953,-0.45117 l 1.324219,-3.96875 a 0.66152446,0.66152446 0 0 0 -0.923828,-0.80078 l -2.302735,1.15039 -1.664062,-1.10938 a 0.66152446,0.66152446 0 0 0 -0.734375,0 l -1.666016,1.10938 -2.3027341,-1.15039 a 0.66152446,0.66152446 0 0 0 -0.3183594,-0.0703 z m 4.6542965,1.45704 1.617188,1.07812 a 0.66152446,0.66152446 0 0 0 0.662109,0.041 l 1.21875,-0.60938 -0.667968,2.00196 H 9.7363281 l -0.6679687,-2.00196 1.2187496,0.60938 a 0.66152446,0.66152446 0 0 0 0.664063,-0.041 z"
         style="color:#000000;font-style:normal;font-variant:normal;font-weight:normal;font-stretch:normal;font-size:medium;line-height:normal;font-family:sans-serif;font-variant-ligatures:normal;font-variant-position:normal;font-variant-caps:normal;font-variant-numeric:normal;font-variant-alternates:normal;font-feature-settings:normal;text-indent:0;text-align:start;text-decoration:none;text-decoration-line:none;text-decoration-style:solid;text-decoration-color:#000000;letter-spacing:normal;word-spacing:normal;text-transform:none;writing-mode:lr-tb;direction:ltr;text-orientation:mixed;dominant-baseline:auto;baseline-shift:baseline;text-anchor:start;white-space:normal;shape-padding:0;clip-rule:nonzero;display:inline;overflow:visible;visibility:visible;opacity:1;isolation:auto;mix-blend-mode:normal;color-interpolation:sRGB;color-interpolation-filters:linearRGB;solid-color:#000000;solid-opacity:1;vector-effect:none;fill:#000000;fill-opacity:1;fill-rule:nonzero;stroke:none;stroke-width:1.32291663;stroke-linecap:butt;stroke-linejoin:round;stroke-miterlimit:4;stroke-dasharray:none;stroke-dashoffset:0;stroke-opacity:1;color-rendering:auto;image-rendering:auto;shape-rendering:auto;text-rendering:auto;enable-background:accumulate" />
    </g>
  </g>
</svg>
